<?xml version="1.0" encoding="UTF-8" standalone="no"?>
<!DOCTYPE svg PUBLIC "-//W3C//DTD SVG 1.1//EN" "http://www.w3.org/Graphics/SVG/1.1/DTD/svg11.dtd">
<svg version="1.1" xmlns="http://www.w3.org/2000/svg" xmlns:xlink="http://www.w3.org/1999/xlink" preserveAspectRatio="xMidYMid meet" viewBox="0 0 640 640" width="640" height="640"><defs><path d="M314.65 608.43C150.09 608.43 16.49 474.82 16.49 310.26C16.49 145.7 150.09 12.09 314.65 12.09C479.22 12.09 612.82 145.7 612.82 310.26C612.82 474.82 479.22 608.43 314.65 608.43Z" id="bHm1LytbS"></path><path d="M226.43 263.21C226.43 263.62 227.59 263.8 230 263.68C230.23 263.67 231.4 263.61 233.52 263.51C248.24 229.23 256.42 210.19 258.06 206.38C281.54 151.67 283.66 147.22 285.82 147.22C286.18 147.22 300.58 153.25 317.75 160.63C319.83 161.53 330.26 166 349.04 174.05C350.72 172.75 351.65 172.03 351.85 171.89C353.37 170.71 354.6 169.54 354.48 169.24C354.42 168.95 339.72 162.46 321.85 154.77C292.56 142.18 289.1 140.84 286.18 140.84C284.42 140.84 282.14 141.19 281.2 141.6C280.2 142.01 278.73 143.18 277.91 144.18C276.51 145.76 226.43 261.69 226.43 263.21Z" id="c5dqtOupN"></path><path d="M268.9 225.89C266.32 225.48 265.09 226.42 265.09 228.94C265.09 230.52 265.38 230.99 266.78 231.57C268.3 232.17 268.54 232.63 268.72 234.91C268.73 235.09 268.79 235.95 268.9 237.5C271.14 235.74 272.4 234.76 272.64 234.56C274.76 232.98 276.81 230.93 277.28 229.99C277.74 229.12 278.91 227.47 279.96 226.42C280.09 226.29 280.7 225.63 281.78 224.43C280.2 223.06 279.33 222.3 279.15 222.14C277.68 220.91 276.33 219.86 276.16 219.86C275.99 219.86 275.16 220.56 274.4 221.44C273.58 222.38 272.47 223.79 271.94 224.66C271.12 226.01 270.71 226.19 268.9 225.89Z" id="b3tv0ZuFGx"></path><path d="M250.33 263.8C250.68 263.8 252.43 263.8 255.59 263.8C290.11 236.45 309.29 221.26 313.13 218.22C365.14 177.04 370.82 172.7 372.7 172.7C374.81 172.7 375.16 173.12 396.42 199.94C408.32 214.94 418.33 227.77 418.69 228.47C419.15 229.41 419.15 230.23 418.75 231.17C418.39 231.93 409.37 239.48 398.71 247.93C388.05 256.36 379.32 263.38 379.32 263.56C379.32 263.68 381.78 263.8 384.76 263.8C385.12 263.8 386.92 263.8 390.15 263.8C399.47 256.42 404.65 252.32 405.68 251.5C414.23 244.76 422.03 238.32 423.08 237.2C426.24 233.8 426.89 228.65 424.72 224.55C424.25 223.73 414.05 210.72 402.05 195.55C378.27 165.62 377.97 165.32 372.58 165.44C371 165.5 369.19 165.62 368.6 165.79C367.48 166.09 245.58 262.39 245.29 263.27C245.17 263.56 247.45 263.8 250.33 263.8Z" id="d2EhyV7pvh"></path><path d="M316.63 235.56C316.63 236.09 317.16 237.2 317.75 237.96C318.81 239.31 318.81 239.42 317.46 241.77C315.64 244.88 315.52 249.8 317.23 252.55C319.8 256.83 324.84 257.82 331.99 255.6C337.2 253.95 339.31 254.07 340.19 255.89C340.77 257.12 340.66 257.65 339.66 258.99C339.01 259.88 337.67 261.1 336.67 261.75C335.67 262.39 334.86 263.09 334.8 263.33C334.8 263.62 337.25 263.8 340.3 263.8C340.68 263.8 342.5 263.8 345.81 263.8C346.61 262.5 347.07 261.78 347.15 261.63C350.09 256.94 349.09 250.14 345.05 247.04C342.12 244.81 338.9 244.7 332.34 246.46C326.01 248.22 324.25 247.98 324.25 245.34C324.25 243.52 328.12 240.24 331.4 239.19C332.81 238.72 333.98 238.37 334.09 238.32C334.39 238.08 331.16 231.57 330.76 231.57C330.47 231.57 328.76 232.34 326.83 233.28C323.49 234.98 323.43 234.98 322.61 233.86C321.09 231.7 316.63 232.98 316.63 235.56Z" id="e6Q3LqAqh"></path><path d="M282.78 165.03C282.46 165.04 280.84 165.05 277.91 165.09C265.44 194.2 258.5 210.36 257.12 213.6C245.64 240.31 236.38 262.33 236.5 262.62C236.67 263.03 255.01 248.86 257.65 246.28C258.64 245.34 258.64 245.17 257.35 242.36C256.3 240.01 256.01 238.43 256.01 233.62C256.01 228.24 256.19 227.47 257.88 223.79C264.09 210.66 281.43 205.57 297.07 212.24C297.23 212.31 298.03 212.67 299.47 213.3C310.51 204.55 316.64 199.68 317.87 198.71C330.4 188.81 336.2 183.84 336.14 183.13C336.14 182.55 335.85 180.73 335.56 179.15C335.27 177.51 335.2 174.93 335.38 173.34C335.73 170.6 335.67 170.48 333.98 169.77C332.99 169.31 325.3 166.03 316.93 162.46C308.56 158.82 301.47 155.77 301.11 155.66C300.82 155.54 300 156.24 299.35 157.24C297.83 159.52 293.44 162.8 290.22 163.98C288.63 164.56 285.71 164.97 282.78 165.03Z" id="c30ZkML60S"></path><path d="M268.9 225.89C266.32 225.48 265.09 226.42 265.09 228.94C265.09 230.52 265.38 230.99 266.78 231.57C268.3 232.17 268.54 232.63 268.72 234.91C268.73 235.09 268.79 235.95 268.9 237.5C271.14 235.74 272.4 234.76 272.64 234.56C274.76 232.98 276.81 230.93 277.28 229.99C277.74 229.12 278.91 227.47 279.96 226.42C280.09 226.29 280.7 225.63 281.78 224.43C280.2 223.06 279.33 222.3 279.15 222.14C277.68 220.91 276.33 219.86 276.16 219.86C275.99 219.86 275.16 220.56 274.4 221.44C273.58 222.38 272.47 223.79 271.94 224.66C271.12 226.01 270.71 226.19 268.9 225.89Z" id="k44EDJCabG"></path><path d="M284.06 263.8C297.48 263.8 308.44 263.68 308.44 263.56C308.44 263.45 307.8 261.98 306.97 260.4C300.47 247.45 304.34 231.52 315.58 224.9C329.18 216.99 348.97 224.84 357.41 241.6C360.28 247.33 361.33 252.43 360.99 258.64C360.97 258.98 360.89 260.71 360.75 263.8C361.24 263.8 363.72 263.8 368.19 263.8L375.63 263.8L390.04 252.37C398.68 245.48 403.49 241.66 404.45 240.89C403.75 239.38 403.36 238.54 403.28 238.37C400.7 232.46 401.34 225.37 405.09 219.69C406.15 218.17 406.85 216.7 406.74 216.41C406.67 216.12 401.41 209.37 395.14 201.41C387.23 191.39 383.48 187.05 382.84 187.29C382.37 187.41 380.9 187.99 379.61 188.46C374.28 190.46 366.25 189.22 361.63 185.65C360.52 184.83 359.46 184.13 359.34 184.13C359.23 184.19 336.85 201.81 309.61 223.43C282.37 244.99 260.05 262.92 259.93 263.21C259.81 263.56 268.61 263.8 284.06 263.8Z" id="c3gX1hFRFC"></path><path d="M316.63 235.56C316.63 236.09 317.16 237.2 317.75 237.96C318.81 239.31 318.81 239.42 317.46 241.77C315.64 244.88 315.52 249.8 317.23 252.55C319.8 256.83 324.84 257.82 331.99 255.6C337.2 253.95 339.31 254.07 340.19 255.89C340.77 257.12 340.66 257.65 339.66 258.99C339.01 259.88 337.67 261.1 336.67 261.75C335.67 262.39 334.86 263.09 334.8 263.33C334.8 263.62 337.25 263.8 340.3 263.8C340.68 263.8 342.5 263.8 345.81 263.8C346.61 262.5 347.07 261.78 347.15 261.63C350.09 256.94 349.09 250.14 345.05 247.04C342.12 244.81 338.9 244.7 332.34 246.46C326.01 248.22 324.25 247.98 324.25 245.34C324.25 243.52 328.12 240.24 331.4 239.19C332.81 238.72 333.98 238.37 334.09 238.32C334.39 238.08 331.16 231.57 330.76 231.57C330.47 231.57 328.76 232.34 326.83 233.28C323.49 234.98 323.43 234.98 322.61 233.86C321.09 231.7 316.63 232.98 316.63 235.56Z" id="a1gAVaeI0p"></path><path d="M226.43 263.21C226.43 263.62 227.59 263.8 230 263.68C230.23 263.67 231.4 263.61 233.52 263.51C248.24 229.23 256.42 210.19 258.06 206.38C281.54 151.67 283.66 147.22 285.82 147.22C286.18 147.22 300.58 153.25 317.75 160.63C319.83 161.53 330.26 166 349.04 174.05C350.72 172.75 351.65 172.03 351.85 171.89C353.37 170.71 354.6 169.54 354.48 169.24C354.42 168.95 339.72 162.46 321.85 154.77C292.56 142.18 289.1 140.84 286.18 140.84C284.42 140.84 282.14 141.19 281.2 141.6C280.2 142.01 278.73 143.18 277.91 144.18C276.51 145.76 226.43 261.69 226.43 263.21Z" id="aZ5pTgydk"></path><path d="M250.33 263.8C250.68 263.8 252.43 263.8 255.59 263.8C290.11 236.45 309.29 221.26 313.13 218.22C365.14 177.04 370.82 172.7 372.7 172.7C374.81 172.7 375.16 173.12 396.42 199.94C408.32 214.94 418.33 227.77 418.69 228.47C419.15 229.41 419.15 230.23 418.75 231.17C418.39 231.93 409.37 239.48 398.71 247.93C388.05 256.36 379.32 263.38 379.32 263.56C379.32 263.68 381.78 263.8 384.76 263.8C385.12 263.8 386.92 263.8 390.15 263.8C399.47 256.42 404.65 252.32 405.68 251.5C414.23 244.76 422.03 238.32 423.08 237.2C426.24 233.8 426.89 228.65 424.72 224.55C424.25 223.73 414.05 210.72 402.05 195.55C378.27 165.62 377.97 165.32 372.58 165.44C371 165.5 369.19 165.62 368.6 165.79C367.48 166.09 245.58 262.39 245.29 263.27C245.17 263.56 247.45 263.8 250.33 263.8Z" id="b1VHODwHcC"></path><path d="M415.29 257.36C415.83 257.36 418.54 257.36 423.43 257.36C423.22 255.95 423.1 255.16 423.08 255.01C422.72 252.14 420.8 248.33 419.68 248.09C419.22 248.04 416.52 249.8 413.59 252.08C410.72 254.37 408.08 256.47 407.79 256.83C407.43 257.12 410.25 257.36 415.29 257.36Z" id="c1j8Cr5ZjU"></path><path d="M198.01 257.06C198.01 262.76 198.01 291.27 198.01 342.59C198.01 393.91 198.01 422.42 198.01 428.12C198.97 429.9 199.49 430.9 199.59 431.11C200.48 432.74 202.4 435.2 203.87 436.49C209.09 441.06 199.42 440.77 320.15 440.59C327.36 440.58 363.38 440.52 428.23 440.41C429.64 439.64 430.42 439.21 430.57 439.13C433.86 437.37 437.61 433.32 439.19 429.87C440.53 427.01 440.53 426.54 440.71 403.04C440.72 401.45 440.78 393.51 440.89 379.2C426.54 379.2 418.58 379.2 416.99 379.2C403.86 379.2 391.56 378.97 389.69 378.61C381.95 377.38 374.99 372.23 371.53 365.2C369.77 361.63 369.66 360.98 369.66 355.18C369.66 349.5 369.77 348.74 371.47 345.17C374.7 338.37 381.01 333.39 388.57 331.8C390.57 331.4 400.41 331.17 416.28 331.17C417.93 331.17 426.13 331.17 440.89 331.17C440.88 329.57 440.82 321.6 440.71 307.26C440.61 292.96 440.55 285.01 440.53 283.42C439.62 281.45 439.11 280.36 439.01 280.14C437.08 275.98 433.91 272.81 429.76 270.89C429.54 270.78 428.44 270.28 426.47 269.36C362.51 269.18 326.97 269.09 319.86 269.07C261.22 268.89 213.19 268.71 213.07 268.6C213.01 268.54 212.43 267.6 211.78 266.55C210.14 263.91 210.31 261.8 212.3 259.57C213.89 257.76 214.35 257.65 218.52 257.36C218.82 257.33 220.32 257.23 223.02 257.06C224.57 253.44 225.43 251.43 225.61 251.03C227.01 247.69 228.18 244.81 228.18 244.7C228.18 244.58 224.55 244.46 220.15 244.52C213.59 244.52 211.49 244.76 209.09 245.7C205.16 247.16 201.88 250.09 199.77 253.9C199.65 254.1 199.06 255.16 198.01 257.06Z" id="eqt9hrra"></path><path d="M282.78 165.03C282.46 165.04 280.84 165.05 277.91 165.09C265.44 194.2 258.5 210.36 257.12 213.6C245.64 240.31 236.38 262.33 236.5 262.62C236.67 263.03 255.01 248.86 257.65 246.28C258.64 245.34 258.64 245.17 257.35 242.36C256.3 240.01 256.01 238.43 256.01 233.62C256.01 228.24 256.19 227.47 257.88 223.79C264.09 210.66 281.43 205.57 297.07 212.24C297.23 212.31 298.03 212.67 299.47 213.3C310.51 204.55 316.64 199.68 317.87 198.71C330.4 188.81 336.2 183.84 336.14 183.13C336.14 182.55 335.85 180.73 335.56 179.15C335.27 177.51 335.2 174.93 335.38 173.34C335.73 170.6 335.67 170.48 333.98 169.77C332.99 169.31 325.3 166.03 316.93 162.46C308.56 158.82 301.47 155.77 301.11 155.66C300.82 155.54 300 156.24 299.35 157.24C297.83 159.52 293.44 162.8 290.22 163.98C288.63 164.56 285.71 164.97 282.78 165.03Z" id="eiy34oxye"></path><path d="M426.83 337.03L428.23 337.04L429.56 337.04L430.81 337.05L432.01 337.05L433.14 337.06L434.21 337.07L435.21 337.08L436.17 337.09L437.06 337.1L437.9 337.12L438.69 337.13L439.42 337.14L440.11 337.16L440.75 337.19L441.34 337.2L441.9 337.22L442.4 337.25L442.87 337.28L443.29 337.3L443.69 337.33L444.04 337.36L444.37 337.4L444.66 337.43L444.93 337.47L445.17 337.51L445.38 337.55L445.56 337.59L445.72 337.64L445.86 337.68L445.99 337.73L446.09 337.79L446.19 337.84L446.27 337.9L446.33 337.96L446.39 338.02L446.46 338.09L446.51 338.16L446.56 338.25L446.61 338.34L446.66 338.44L446.75 338.69L446.79 338.84L446.83 338.99L446.86 339.17L446.9 339.35L446.93 339.56L446.96 339.79L447 340.03L447.02 340.3L447.05 340.58L447.07 340.89L447.09 341.23L447.11 341.58L447.13 341.96L447.15 342.36L447.16 342.79L447.18 343.25L447.19 343.75L447.21 344.26L447.22 344.81L447.23 345.39L447.23 346L447.24 346.64L447.25 347.32L447.25 348.03L447.26 348.78L447.26 349.57L447.27 350.4L447.27 361.05L447.26 361.87L447.26 362.66L447.25 363.39L447.24 364.09L447.24 364.75L447.23 365.37L447.23 365.96L447.21 366.5L447.2 367.01L447.18 367.49L447.17 367.94L447.15 368.35L447.13 368.74L447.11 369.1L447.08 369.44L447.07 369.74L447.04 370.02L447 370.29L446.98 370.53L446.94 370.75L446.91 370.94L446.86 371.13L446.82 371.3L446.77 371.45L446.73 371.58L446.68 371.7L446.62 371.82L446.57 371.92L446.45 372.1L446.38 372.19L446.16 372.41L446.09 372.47L446 372.53L445.9 372.59L445.79 372.65L445.67 372.7L445.53 372.74L445.38 372.8L445.2 372.84L445 372.88L444.78 372.92L444.53 372.96L444.25 372.99L443.94 373.03L443.59 373.05L443.21 373.08L442.8 373.11L442.34 373.13L441.84 373.15L441.3 373.17L440.72 373.19L440.08 373.2L439.4 373.21L438.67 373.23L437.87 373.24L437.03 373.25L436.12 373.26L435.16 373.26L434.14 373.27L426.54 373.27L425.01 373.26L423.41 373.26L421.73 373.25L419.96 373.24L418.11 373.23L416.17 373.22L414.06 373.21L412.07 373.2L410.16 373.19L408.36 373.18L406.66 373.16L405.05 373.15L403.53 373.14L402.1 373.12L400.74 373.12L399.47 373.1L398.28 373.09L397.16 373.07L396.12 373.05L395.15 373.04L394.24 373.02L393.4 373L392.61 372.98L391.89 372.96L391.22 372.93L390.6 372.9L390.04 372.88L389.52 372.84L389.03 372.81L388.6 372.77L388.2 372.73L387.84 372.68L387.5 372.64L387.2 372.59L386.92 372.54L386.66 372.48L386.43 372.43L386.21 372.36L385.82 372.22L385.29 371.98L385.12 371.9L384.95 371.8L384.76 371.7L384.49 371.55L384.22 371.41L383.69 371.11L383.44 370.95L383.18 370.8L382.69 370.48L382.45 370.31L382.21 370.15L381.75 369.82L381.52 369.64L381.3 369.47L381.08 369.3L380.86 369.11L380.65 368.94L380.44 368.75L380.24 368.56L380.03 368.37L379.64 367.98L379.45 367.78L379.08 367.37L378.89 367.16L378.54 366.73L378.36 366.51L378.2 366.29L377.86 365.83L377.7 365.59L377.53 365.36L377.37 365.12L376.92 364.37L376.77 364.11L376.62 363.85L376.52 363.64L376.3 363.25L376.21 363.06L376.11 362.88L376.03 362.7L375.94 362.53L375.86 362.35L375.79 362.18L375.72 362.02L375.65 361.86L375.59 361.69L375.53 361.53L375.47 361.37L375.37 361.03L375.28 360.7L375.24 360.53L375.21 360.35L375.17 360.17L375.14 359.99L375.08 359.6L375.06 359.4L375.02 358.97L374.99 358.51L374.98 358.27L374.97 358.01L374.95 357.75L374.95 357.47L374.94 357.19L374.93 356.89L374.93 356.57L374.93 356.24L374.93 354.51L374.93 354.19L374.93 353.59L374.94 353.31L374.95 353.03L374.96 352.77L374.97 352.51L374.98 352.27L375 352.03L375 351.8L375.04 351.36L375.08 350.95L375.1 350.75L375.15 350.38L375.21 350.03L375.28 349.69L375.31 349.53L375.36 349.38L375.4 349.23L375.45 349.07L375.49 348.92L375.54 348.77L375.6 348.62L375.65 348.48L375.7 348.33L375.76 348.19L375.83 348.04L375.97 347.76L376.11 347.46L376.27 347.16L376.38 346.95L376.5 346.76L376.61 346.56L376.74 346.35L377 345.95L377.14 345.74L377.44 345.34L377.76 344.93L377.93 344.72L378.11 344.51L378.28 344.3L378.47 344.1L378.86 343.67L379.26 343.25L379.48 343.04L379.92 342.61L380.15 342.4L380.39 342.19L380.63 341.97L380.87 341.76L381.12 341.54L381.38 341.32L381.91 340.88L382.18 340.67L382.46 340.45L382.74 340.23L383.03 340.01L383.33 339.79L383.63 339.56L383.93 339.33L384.24 339.11L384.56 338.88L384.89 338.66L388.4 337.02L420.54 337.02L422.22 337.03L426.83 337.03ZM389.57 347.2L388.32 347.86L387.2 348.69L386.23 349.71L385.43 350.89L384.82 352.19L384.44 353.64L384.29 355.18L384.36 356.26L384.56 357.3L384.87 358.29L385.3 359.24L385.83 360.11L386.47 360.91L387.19 361.63L388.01 362.26L388.9 362.79L389.85 363.23L390.89 363.54L391.97 363.74L392.75 363.78L393.56 363.74L394.38 363.6L395.2 363.38L396.02 363.08L396.82 362.7L397.59 362.25L398.3 361.75L398.98 361.2L399.58 360.6L400.1 359.96L400.52 359.28L401.01 358.22L401.33 357.12L401.49 355.98L401.49 354.82L401.34 353.66L401.05 352.54L400.63 351.45L400.07 350.43L399.39 349.49L398.59 348.64L397.68 347.92L396.66 347.33L395.21 346.79L393.75 346.54L392.3 346.52L390.91 346.75L389.57 347.2Z" id="e1EM1LB8Fn"></path><path d="M198.01 257.06C198.01 262.76 198.01 291.27 198.01 342.59C198.01 393.91 198.01 422.42 198.01 428.12C198.97 429.9 199.49 430.9 199.59 431.11C200.48 432.74 202.4 435.2 203.87 436.49C209.09 441.06 199.42 440.77 320.15 440.59C327.36 440.58 363.38 440.52 428.23 440.41C429.64 439.64 430.42 439.21 430.57 439.13C433.86 437.37 437.61 433.32 439.19 429.87C440.53 427.01 440.53 426.54 440.71 403.04C440.72 401.45 440.78 393.51 440.89 379.2C426.54 379.2 418.58 379.2 416.99 379.2C403.86 379.2 391.56 378.97 389.69 378.61C381.95 377.38 374.99 372.23 371.53 365.2C369.77 361.63 369.66 360.98 369.66 355.18C369.66 349.5 369.77 348.74 371.47 345.17C374.7 338.37 381.01 333.39 388.57 331.8C390.57 331.4 400.41 331.17 416.28 331.17C417.93 331.17 426.13 331.17 440.89 331.17C440.88 329.57 440.82 321.6 440.71 307.26C440.61 292.96 440.55 285.01 440.53 283.42C439.62 281.45 439.11 280.36 439.01 280.14C437.08 275.98 433.91 272.81 429.76 270.89C429.54 270.78 428.44 270.28 426.47 269.36C362.51 269.18 326.97 269.09 319.86 269.07C261.22 268.89 213.19 268.71 213.07 268.6C213.01 268.54 212.43 267.6 211.78 266.55C210.14 263.91 210.31 261.8 212.3 259.57C213.89 257.76 214.35 257.65 218.52 257.36C218.82 257.33 220.32 257.23 223.02 257.06C224.57 253.44 225.43 251.43 225.61 251.03C227.01 247.69 228.18 244.81 228.18 244.7C228.18 244.58 224.55 244.46 220.15 244.52C213.59 244.52 211.49 244.76 209.09 245.7C205.16 247.16 201.88 250.09 199.77 253.9C199.65 254.1 199.06 255.16 198.01 257.06Z" id="hmkBXAs1e"></path><path d="M426.83 337.03L428.23 337.04L429.56 337.04L430.81 337.05L432.01 337.05L433.14 337.06L434.21 337.07L435.21 337.08L436.17 337.09L437.06 337.1L437.9 337.12L438.69 337.13L439.42 337.14L440.11 337.16L440.75 337.19L441.34 337.2L441.9 337.22L442.4 337.25L442.87 337.28L443.29 337.3L443.69 337.33L444.04 337.36L444.37 337.4L444.66 337.43L444.93 337.47L445.17 337.51L445.38 337.55L445.56 337.59L445.72 337.64L445.86 337.68L445.99 337.73L446.09 337.79L446.19 337.84L446.27 337.9L446.33 337.96L446.39 338.02L446.46 338.09L446.51 338.16L446.56 338.25L446.61 338.34L446.66 338.44L446.75 338.69L446.79 338.84L446.83 338.99L446.86 339.17L446.9 339.35L446.93 339.56L446.96 339.79L447 340.03L447.02 340.3L447.05 340.58L447.07 340.89L447.09 341.23L447.11 341.58L447.13 341.96L447.15 342.36L447.16 342.79L447.18 343.25L447.19 343.75L447.21 344.26L447.22 344.81L447.23 345.39L447.23 346L447.24 346.64L447.25 347.32L447.25 348.03L447.26 348.78L447.26 349.57L447.27 350.4L447.27 361.05L447.26 361.87L447.26 362.66L447.25 363.39L447.24 364.09L447.24 364.75L447.23 365.37L447.23 365.96L447.21 366.5L447.2 367.01L447.18 367.49L447.17 367.94L447.15 368.35L447.13 368.74L447.11 369.1L447.08 369.44L447.07 369.74L447.04 370.02L447 370.29L446.98 370.53L446.94 370.75L446.91 370.94L446.86 371.13L446.82 371.3L446.77 371.45L446.73 371.58L446.68 371.7L446.62 371.82L446.57 371.92L446.45 372.1L446.38 372.19L446.16 372.41L446.09 372.47L446 372.53L445.9 372.59L445.79 372.65L445.67 372.7L445.53 372.74L445.38 372.8L445.2 372.84L445 372.88L444.78 372.92L444.53 372.96L444.25 372.99L443.94 373.03L443.59 373.05L443.21 373.08L442.8 373.11L442.34 373.13L441.84 373.15L441.3 373.17L440.72 373.19L440.08 373.2L439.4 373.21L438.67 373.23L437.87 373.24L437.03 373.25L436.12 373.26L435.16 373.26L434.14 373.27L426.54 373.27L425.01 373.26L423.41 373.26L421.73 373.25L419.96 373.24L418.11 373.23L416.17 373.22L414.06 373.21L412.07 373.2L410.16 373.19L408.36 373.18L406.66 373.16L405.05 373.15L403.53 373.14L402.1 373.12L400.74 373.12L399.47 373.1L398.28 373.09L397.16 373.07L396.12 373.05L395.15 373.04L394.24 373.02L393.4 373L392.61 372.98L391.89 372.96L391.22 372.93L390.6 372.9L390.04 372.88L389.52 372.84L389.03 372.81L388.6 372.77L388.2 372.73L387.84 372.68L387.5 372.64L387.2 372.59L386.92 372.54L386.66 372.48L386.43 372.43L386.21 372.36L385.82 372.22L385.29 371.98L385.12 371.9L384.95 371.8L384.76 371.7L384.49 371.55L384.22 371.41L383.69 371.11L383.44 370.95L383.18 370.8L382.69 370.48L382.45 370.31L382.21 370.15L381.75 369.82L381.52 369.64L381.3 369.47L381.08 369.3L380.86 369.11L380.65 368.94L380.44 368.75L380.24 368.56L380.03 368.37L379.64 367.98L379.45 367.78L379.08 367.37L378.89 367.16L378.54 366.73L378.36 366.51L378.2 366.29L377.86 365.83L377.7 365.59L377.53 365.36L377.37 365.12L376.92 364.37L376.77 364.11L376.62 363.85L376.52 363.64L376.3 363.25L376.21 363.06L376.11 362.88L376.03 362.7L375.94 362.53L375.86 362.35L375.79 362.18L375.72 362.02L375.65 361.86L375.59 361.69L375.53 361.53L375.47 361.37L375.37 361.03L375.28 360.7L375.24 360.53L375.21 360.35L375.17 360.17L375.14 359.99L375.08 359.6L375.06 359.4L375.02 358.97L374.99 358.51L374.98 358.27L374.97 358.01L374.95 357.75L374.95 357.47L374.94 357.19L374.93 356.89L374.93 356.57L374.93 356.24L374.93 354.51L374.93 354.19L374.93 353.59L374.94 353.31L374.95 353.03L374.96 352.77L374.97 352.51L374.98 352.27L375 352.03L375 351.8L375.04 351.36L375.08 350.95L375.1 350.75L375.15 350.38L375.21 350.03L375.28 349.69L375.31 349.53L375.36 349.38L375.4 349.23L375.45 349.07L375.49 348.92L375.54 348.77L375.6 348.62L375.65 348.48L375.7 348.33L375.76 348.19L375.83 348.04L375.97 347.76L376.11 347.46L376.27 347.16L376.38 346.95L376.5 346.76L376.61 346.56L376.74 346.35L377 345.95L377.14 345.74L377.44 345.34L377.76 344.93L377.93 344.72L378.11 344.51L378.28 344.3L378.47 344.1L378.86 343.67L379.26 343.25L379.48 343.04L379.92 342.61L380.15 342.4L380.39 342.19L380.63 341.97L380.87 341.76L381.12 341.54L381.38 341.32L381.91 340.88L382.18 340.67L382.46 340.45L382.74 340.23L383.03 340.01L383.33 339.79L383.63 339.56L383.93 339.33L384.24 339.11L384.56 338.88L384.89 338.66L388.4 337.02L420.54 337.02L422.22 337.03L426.83 337.03ZM389.57 347.2L388.32 347.86L387.2 348.69L386.23 349.71L385.43 350.89L384.82 352.19L384.44 353.64L384.29 355.18L384.36 356.26L384.56 357.3L384.87 358.29L385.3 359.24L385.83 360.11L386.47 360.91L387.19 361.63L388.01 362.26L388.9 362.79L389.85 363.23L390.89 363.54L391.97 363.74L392.75 363.78L393.56 363.74L394.38 363.6L395.2 363.38L396.02 363.08L396.82 362.7L397.59 362.25L398.3 361.75L398.98 361.2L399.58 360.6L400.1 359.96L400.52 359.28L401.01 358.22L401.33 357.12L401.49 355.98L401.49 354.82L401.34 353.66L401.05 352.54L400.63 351.45L400.07 350.43L399.39 349.49L398.59 348.64L397.68 347.92L396.66 347.33L395.21 346.79L393.75 346.54L392.3 346.52L390.91 346.75L389.57 347.2Z" id="aawMLKv5i"></path><path d="M415.29 257.36C415.83 257.36 418.54 257.36 423.43 257.36C423.22 255.95 423.1 255.16 423.08 255.01C422.72 252.14 420.8 248.33 419.68 248.09C419.22 248.04 416.52 249.8 413.59 252.08C410.72 254.37 408.08 256.47 407.79 256.83C407.43 257.12 410.25 257.36 415.29 257.36Z" id="gAuFnUfW4"></path><path d="M284.06 263.8C297.48 263.8 308.44 263.68 308.44 263.56C308.44 263.45 307.8 261.98 306.97 260.4C300.47 247.45 304.34 231.52 315.58 224.9C329.18 216.99 348.97 224.84 357.41 241.6C360.28 247.33 361.33 252.43 360.99 258.64C360.97 258.98 360.89 260.71 360.75 263.8C361.24 263.8 363.72 263.8 368.19 263.8L375.63 263.8L390.04 252.37C398.68 245.48 403.49 241.66 404.45 240.89C403.75 239.38 403.36 238.54 403.28 238.37C400.7 232.46 401.34 225.37 405.09 219.69C406.15 218.17 406.85 216.7 406.74 216.41C406.67 216.12 401.41 209.37 395.14 201.41C387.23 191.39 383.48 187.05 382.84 187.29C382.37 187.41 380.9 187.99 379.61 188.46C374.28 190.46 366.25 189.22 361.63 185.65C360.52 184.83 359.46 184.13 359.34 184.13C359.23 184.19 336.85 201.81 309.61 223.43C282.37 244.99 260.05 262.92 259.93 263.21C259.81 263.56 268.61 263.8 284.06 263.8Z" id="c60QK2LppC"></path></defs><g><g><g><g><filter id="shadow4729179" x="-25.51" y="-29.91" width="687.34" height="687.34" filterUnits="userSpaceOnUse" primitiveUnits="userSpaceOnUse"><feFlood></feFlood><feComposite in2="SourceAlpha" operator="in"></feComposite><feGaussianBlur stdDeviation="3.61"></feGaussianBlur><feOffset dx="7" dy="7" result="afterOffset"></feOffset><feFlood flood-color="#000000" flood-opacity="0.14"></feFlood><feComposite in2="afterOffset" operator="in"></feComposite><feMorphology operator="dilate" radius="4"></feMorphology><feComposite in2="SourceAlpha" operator="out"></feComposite></filter><path d="M314.65 608.43C150.09 608.43 16.49 474.82 16.49 310.26C16.49 145.7 150.09 12.09 314.65 12.09C479.22 12.09 612.82 145.7 612.82 310.26C612.82 474.82 479.22 608.43 314.65 608.43Z" id="dExwGgCS7" fill="white" fill-opacity="1" filter="url(#shadow4729179)"></path></g><use xlink:href="#bHm1LytbS" opacity="1" fill="#36ba99" fill-opacity="1"></use><g><use xlink:href="#bHm1LytbS" opacity="1" fill-opacity="0" stroke="#dd3333" stroke-width="1" stroke-opacity="0"></use></g></g><g><use xlink:href="#c5dqtOupN" opacity="1" fill="#ffffff" fill-opacity="1"></use><g><use xlink:href="#c5dqtOupN" opacity="1" fill-opacity="0" stroke="#000000" stroke-width="1" stroke-opacity="0"></use></g></g><g><use xlink:href="#b3tv0ZuFGx" opacity="1" fill="#ffffff" fill-opacity="1"></use><g><use xlink:href="#b3tv0ZuFGx" opacity="1" fill-opacity="0" stroke="#000000" stroke-width="1" stroke-opacity="0"></use></g></g><g><use xlink:href="#d2EhyV7pvh" opacity="1" fill="#ffffff" fill-opacity="1"></use><g><use xlink:href="#d2EhyV7pvh" opacity="1" fill-opacity="0" stroke="#000000" stroke-width="1" stroke-opacity="0"></use></g></g><g><use xlink:href="#e6Q3LqAqh" opacity="1" fill="#ffffff" fill-opacity="1"></use><g><use xlink:href="#e6Q3LqAqh" opacity="1" fill-opacity="0" stroke="#000000" stroke-width="1" stroke-opacity="0"></use></g></g><g><use xlink:href="#c30ZkML60S" opacity="1" fill="#ffffff" fill-opacity="1"></use><g><use xlink:href="#c30ZkML60S" opacity="1" fill-opacity="0" stroke="#000000" stroke-width="1" stroke-opacity="0"></use></g></g><g><use xlink:href="#k44EDJCabG" opacity="1" fill="#ffffff" fill-opacity="1"></use><g><use xlink:href="#k44EDJCabG" opacity="1" fill-opacity="0" stroke="#000000" stroke-width="1" stroke-opacity="0"></use></g></g><g><use xlink:href="#c3gX1hFRFC" opacity="1" fill="#ffffff" fill-opacity="1"></use><g><use xlink:href="#c3gX1hFRFC" opacity="1" fill-opacity="0" stroke="#000000" stroke-width="1" stroke-opacity="0"></use></g></g><g><use xlink:href="#a1gAVaeI0p" opacity="1" fill="#ffffff" fill-opacity="1"></use><g><use xlink:href="#a1gAVaeI0p" opacity="1" fill-opacity="0" stroke="#000000" stroke-width="1" stroke-opacity="0"></use></g></g><g><use xlink:href="#aZ5pTgydk" opacity="1" fill="#ffffff" fill-opacity="1"></use><g><use xlink:href="#aZ5pTgydk" opacity="1" fill-opacity="0" stroke="#000000" stroke-width="1" stroke-opacity="0"></use></g></g><g><use xlink:href="#b1VHODwHcC" opacity="1" fill="#ffffff" fill-opacity="1"></use><g><use xlink:href="#b1VHODwHcC" opacity="1" fill-opacity="0" stroke="#000000" stroke-width="1" stroke-opacity="0"></use></g></g><g><use xlink:href="#c1j8Cr5ZjU" opacity="1" fill="#ffffff" fill-opacity="1"></use><g><use xlink:href="#c1j8Cr5ZjU" opacity="1" fill-opacity="0" stroke="#000000" stroke-width="1" stroke-opacity="0"></use></g></g><g><use xlink:href="#eqt9hrra" opacity="1" fill="#ffffff" fill-opacity="1"></use><g><use xlink:href="#eqt9hrra" opacity="1" fill-opacity="0" stroke="#000000" stroke-width="1" stroke-opacity="0"></use></g></g><g><use xlink:href="#eiy34oxye" opacity="1" fill="#ffffff" fill-opacity="1"></use><g><use xlink:href="#eiy34oxye" opacity="1" fill-opacity="0" stroke="#000000" stroke-width="1" stroke-opacity="0"></use></g></g><g><use xlink:href="#e1EM1LB8Fn" opacity="1" fill="#ffffff" fill-opacity="1"></use><g><use xlink:href="#e1EM1LB8Fn" opacity="1" fill-opacity="0" stroke="#000000" stroke-width="1" stroke-opacity="0"></use></g></g><g><use xlink:href="#hmkBXAs1e" opacity="1" fill="#ffffff" fill-opacity="1"></use><g><use xlink:href="#hmkBXAs1e" opacity="1" fill-opacity="0" stroke="#000000" stroke-width="1" stroke-opacity="0"></use></g></g><g><use xlink:href="#aawMLKv5i" opacity="1" fill="#ffffff" fill-opacity="1"></use><g><use xlink:href="#aawMLKv5i" opacity="1" fill-opacity="0" stroke="#000000" stroke-width="1" stroke-opacity="0"></use></g></g><g><use xlink:href="#gAuFnUfW4" opacity="1" fill="#ffffff" fill-opacity="1"></use><g><use xlink:href="#gAuFnUfW4" opacity="1" fill-opacity="0" stroke="#000000" stroke-width="1" stroke-opacity="0"></use></g></g><g><use xlink:href="#c60QK2LppC" opacity="1" fill="#ffffff" fill-opacity="1"></use><g><use xlink:href="#c60QK2LppC" opacity="1" fill-opacity="0" stroke="#000000" stroke-width="1" stroke-opacity="0"></use></g></g></g></g></svg>